<mxfile host="Electron" modified="2024-04-26T02:06:29.364Z" agent="Mozilla/5.0 (Windows NT 10.0; Win64; x64) AppleWebKit/537.36 (KHTML, like Gecko) draw.io/24.2.5 Chrome/120.0.6099.109 Electron/28.1.0 Safari/537.36" etag="U6EdjrV7wSbV2yTdJMDs" version="24.2.5" type="device">
  <diagram name="第 1 页" id="RClUGP7ZF0BuserU0UqR">
    <mxGraphModel dx="1394" dy="626" grid="1" gridSize="10" guides="1" tooltips="1" connect="1" arrows="1" fold="1" page="1" pageScale="1" pageWidth="2336" pageHeight="1654" math="0" shadow="0">
      <root>
        <mxCell id="0" />
        <mxCell id="1" parent="0" />
        <mxCell id="tZjroSSiwy8jBitg883a-1" value="更新以下表的内容" style="text;html=1;align=center;verticalAlign=middle;whiteSpace=wrap;rounded=0;" parent="1" vertex="1">
          <mxGeometry x="30" y="35" width="140" height="30" as="geometry" />
        </mxCell>
        <mxCell id="tZjroSSiwy8jBitg883a-2" value="遗失物品表LostItems" style="swimlane;fontStyle=0;childLayout=stackLayout;horizontal=1;startSize=30;horizontalStack=0;resizeParent=1;resizeParentMax=0;resizeLast=0;collapsible=1;marginBottom=0;whiteSpace=wrap;html=1;" parent="1" vertex="1">
          <mxGeometry x="30" y="240" width="140" height="300" as="geometry" />
        </mxCell>
        <mxCell id="tZjroSSiwy8jBitg883a-3" value="物品ID" style="text;strokeColor=none;fillColor=none;align=left;verticalAlign=middle;spacingLeft=4;spacingRight=4;overflow=hidden;points=[[0,0.5],[1,0.5]];portConstraint=eastwest;rotatable=0;whiteSpace=wrap;html=1;" parent="tZjroSSiwy8jBitg883a-2" vertex="1">
          <mxGeometry y="30" width="140" height="30" as="geometry" />
        </mxCell>
        <mxCell id="tZjroSSiwy8jBitg883a-4" value="物品名称" style="text;strokeColor=none;fillColor=none;align=left;verticalAlign=middle;spacingLeft=4;spacingRight=4;overflow=hidden;points=[[0,0.5],[1,0.5]];portConstraint=eastwest;rotatable=0;whiteSpace=wrap;html=1;" parent="tZjroSSiwy8jBitg883a-2" vertex="1">
          <mxGeometry y="60" width="140" height="30" as="geometry" />
        </mxCell>
        <mxCell id="tZjroSSiwy8jBitg883a-5" value="类别ID" style="text;strokeColor=none;fillColor=none;align=left;verticalAlign=middle;spacingLeft=4;spacingRight=4;overflow=hidden;points=[[0,0.5],[1,0.5]];portConstraint=eastwest;rotatable=0;whiteSpace=wrap;html=1;" parent="tZjroSSiwy8jBitg883a-2" vertex="1">
          <mxGeometry y="90" width="140" height="30" as="geometry" />
        </mxCell>
        <mxCell id="tZjroSSiwy8jBitg883a-6" value="描述" style="text;strokeColor=none;fillColor=none;align=left;verticalAlign=middle;spacingLeft=4;spacingRight=4;overflow=hidden;points=[[0,0.5],[1,0.5]];portConstraint=eastwest;rotatable=0;whiteSpace=wrap;html=1;" parent="tZjroSSiwy8jBitg883a-2" vertex="1">
          <mxGeometry y="120" width="140" height="30" as="geometry" />
        </mxCell>
        <mxCell id="tZjroSSiwy8jBitg883a-7" value="遗失地点" style="text;strokeColor=none;fillColor=none;align=left;verticalAlign=middle;spacingLeft=4;spacingRight=4;overflow=hidden;points=[[0,0.5],[1,0.5]];portConstraint=eastwest;rotatable=0;whiteSpace=wrap;html=1;" parent="tZjroSSiwy8jBitg883a-2" vertex="1">
          <mxGeometry y="150" width="140" height="30" as="geometry" />
        </mxCell>
        <mxCell id="tZjroSSiwy8jBitg883a-8" value="遗失日期" style="text;strokeColor=none;fillColor=none;align=left;verticalAlign=middle;spacingLeft=4;spacingRight=4;overflow=hidden;points=[[0,0.5],[1,0.5]];portConstraint=eastwest;rotatable=0;whiteSpace=wrap;html=1;" parent="tZjroSSiwy8jBitg883a-2" vertex="1">
          <mxGeometry y="180" width="140" height="30" as="geometry" />
        </mxCell>
        <mxCell id="tZjroSSiwy8jBitg883a-9" value="用户ID" style="text;strokeColor=none;fillColor=none;align=left;verticalAlign=middle;spacingLeft=4;spacingRight=4;overflow=hidden;points=[[0,0.5],[1,0.5]];portConstraint=eastwest;rotatable=0;whiteSpace=wrap;html=1;" parent="tZjroSSiwy8jBitg883a-2" vertex="1">
          <mxGeometry y="210" width="140" height="30" as="geometry" />
        </mxCell>
        <mxCell id="tZjroSSiwy8jBitg883a-10" value="&lt;span style=&quot;background-color: rgb(255, 255, 51);&quot;&gt;遗失状态（更新名字）&lt;/span&gt;" style="text;strokeColor=none;fillColor=none;align=left;verticalAlign=middle;spacingLeft=4;spacingRight=4;overflow=hidden;points=[[0,0.5],[1,0.5]];portConstraint=eastwest;rotatable=0;whiteSpace=wrap;html=1;" parent="tZjroSSiwy8jBitg883a-2" vertex="1">
          <mxGeometry y="240" width="140" height="30" as="geometry" />
        </mxCell>
        <mxCell id="tZjroSSiwy8jBitg883a-54" value="&lt;span style=&quot;background-color: rgb(255, 153, 153);&quot;&gt;审核状态（新增属性）&lt;/span&gt;" style="text;html=1;align=center;verticalAlign=middle;whiteSpace=wrap;rounded=0;" parent="tZjroSSiwy8jBitg883a-2" vertex="1">
          <mxGeometry y="270" width="140" height="30" as="geometry" />
        </mxCell>
        <mxCell id="tZjroSSiwy8jBitg883a-14" value="物品图片表ItemImages" style="swimlane;fontStyle=0;childLayout=stackLayout;horizontal=1;startSize=30;horizontalStack=0;resizeParent=1;resizeParentMax=0;resizeLast=0;collapsible=1;marginBottom=0;whiteSpace=wrap;html=1;container=0;" parent="1" vertex="1">
          <mxGeometry x="274" y="310" width="140" height="180" as="geometry" />
        </mxCell>
        <mxCell id="tZjroSSiwy8jBitg883a-15" value="图片ID" style="text;strokeColor=none;fillColor=none;align=left;verticalAlign=middle;spacingLeft=4;spacingRight=4;overflow=hidden;points=[[0,0.5],[1,0.5]];portConstraint=eastwest;rotatable=0;whiteSpace=wrap;html=1;" parent="tZjroSSiwy8jBitg883a-14" vertex="1">
          <mxGeometry y="30" width="140" height="30" as="geometry" />
        </mxCell>
        <mxCell id="tZjroSSiwy8jBitg883a-16" value="物品ID" style="text;strokeColor=none;fillColor=none;align=left;verticalAlign=middle;spacingLeft=4;spacingRight=4;overflow=hidden;points=[[0,0.5],[1,0.5]];portConstraint=eastwest;rotatable=0;whiteSpace=wrap;html=1;" parent="tZjroSSiwy8jBitg883a-14" vertex="1">
          <mxGeometry y="60" width="140" height="30" as="geometry" />
        </mxCell>
        <mxCell id="tZjroSSiwy8jBitg883a-17" value="图片URL" style="text;strokeColor=none;fillColor=none;align=left;verticalAlign=middle;spacingLeft=4;spacingRight=4;overflow=hidden;points=[[0,0.5],[1,0.5]];portConstraint=eastwest;rotatable=0;whiteSpace=wrap;html=1;" parent="tZjroSSiwy8jBitg883a-14" vertex="1">
          <mxGeometry y="90" width="140" height="30" as="geometry" />
        </mxCell>
        <mxCell id="tZjroSSiwy8jBitg883a-18" value="描述" style="text;strokeColor=none;fillColor=none;align=left;verticalAlign=middle;spacingLeft=4;spacingRight=4;overflow=hidden;points=[[0,0.5],[1,0.5]];portConstraint=eastwest;rotatable=0;whiteSpace=wrap;html=1;" parent="tZjroSSiwy8jBitg883a-14" vertex="1">
          <mxGeometry y="120" width="140" height="30" as="geometry" />
        </mxCell>
        <mxCell id="tZjroSSiwy8jBitg883a-24" value="&lt;span style=&quot;background-color: rgb(255, 153, 153);&quot;&gt;审核状态（新增属性）&lt;/span&gt;" style="text;strokeColor=none;fillColor=none;align=left;verticalAlign=middle;spacingLeft=4;spacingRight=4;overflow=hidden;points=[[0,0.5],[1,0.5]];portConstraint=eastwest;rotatable=0;whiteSpace=wrap;html=1;" parent="tZjroSSiwy8jBitg883a-14" vertex="1">
          <mxGeometry y="150" width="140" height="30" as="geometry" />
        </mxCell>
        <mxCell id="tZjroSSiwy8jBitg883a-26" value="" style="endArrow=classic;html=1;rounded=0;exitX=0;exitY=0.5;exitDx=0;exitDy=0;entryX=0;entryY=0.5;entryDx=0;entryDy=0;" parent="1" source="tZjroSSiwy8jBitg883a-24" target="tZjroSSiwy8jBitg883a-41" edge="1">
          <mxGeometry width="50" height="50" relative="1" as="geometry">
            <mxPoint x="390" y="380" as="sourcePoint" />
            <mxPoint x="220" y="475" as="targetPoint" />
          </mxGeometry>
        </mxCell>
        <mxCell id="tZjroSSiwy8jBitg883a-62" value="外码" style="edgeLabel;html=1;align=center;verticalAlign=middle;resizable=0;points=[];" parent="tZjroSSiwy8jBitg883a-26" vertex="1" connectable="0">
          <mxGeometry x="0.1869" y="-3" relative="1" as="geometry">
            <mxPoint as="offset" />
          </mxGeometry>
        </mxCell>
        <mxCell id="tZjroSSiwy8jBitg883a-27" value="找回物品表FoundItems" style="swimlane;fontStyle=0;childLayout=stackLayout;horizontal=1;startSize=30;horizontalStack=0;resizeParent=1;resizeParentMax=0;resizeLast=0;collapsible=1;marginBottom=0;whiteSpace=wrap;html=1;" parent="1" vertex="1">
          <mxGeometry x="470" y="190" width="140" height="300" as="geometry" />
        </mxCell>
        <mxCell id="tZjroSSiwy8jBitg883a-28" value="物品ID" style="text;strokeColor=none;fillColor=none;align=left;verticalAlign=middle;spacingLeft=4;spacingRight=4;overflow=hidden;points=[[0,0.5],[1,0.5]];portConstraint=eastwest;rotatable=0;whiteSpace=wrap;html=1;" parent="tZjroSSiwy8jBitg883a-27" vertex="1">
          <mxGeometry y="30" width="140" height="30" as="geometry" />
        </mxCell>
        <mxCell id="tZjroSSiwy8jBitg883a-29" value="物品名称" style="text;strokeColor=none;fillColor=none;align=left;verticalAlign=middle;spacingLeft=4;spacingRight=4;overflow=hidden;points=[[0,0.5],[1,0.5]];portConstraint=eastwest;rotatable=0;whiteSpace=wrap;html=1;" parent="tZjroSSiwy8jBitg883a-27" vertex="1">
          <mxGeometry y="60" width="140" height="30" as="geometry" />
        </mxCell>
        <mxCell id="tZjroSSiwy8jBitg883a-30" value="类别ID" style="text;strokeColor=none;fillColor=none;align=left;verticalAlign=middle;spacingLeft=4;spacingRight=4;overflow=hidden;points=[[0,0.5],[1,0.5]];portConstraint=eastwest;rotatable=0;whiteSpace=wrap;html=1;" parent="tZjroSSiwy8jBitg883a-27" vertex="1">
          <mxGeometry y="90" width="140" height="30" as="geometry" />
        </mxCell>
        <mxCell id="tZjroSSiwy8jBitg883a-31" value="描述" style="text;strokeColor=none;fillColor=none;align=left;verticalAlign=middle;spacingLeft=4;spacingRight=4;overflow=hidden;points=[[0,0.5],[1,0.5]];portConstraint=eastwest;rotatable=0;whiteSpace=wrap;html=1;" parent="tZjroSSiwy8jBitg883a-27" vertex="1">
          <mxGeometry y="120" width="140" height="30" as="geometry" />
        </mxCell>
        <mxCell id="tZjroSSiwy8jBitg883a-32" value="找回地点" style="text;strokeColor=none;fillColor=none;align=left;verticalAlign=middle;spacingLeft=4;spacingRight=4;overflow=hidden;points=[[0,0.5],[1,0.5]];portConstraint=eastwest;rotatable=0;whiteSpace=wrap;html=1;" parent="tZjroSSiwy8jBitg883a-27" vertex="1">
          <mxGeometry y="150" width="140" height="30" as="geometry" />
        </mxCell>
        <mxCell id="tZjroSSiwy8jBitg883a-33" value="找回日期" style="text;strokeColor=none;fillColor=none;align=left;verticalAlign=middle;spacingLeft=4;spacingRight=4;overflow=hidden;points=[[0,0.5],[1,0.5]];portConstraint=eastwest;rotatable=0;whiteSpace=wrap;html=1;" parent="tZjroSSiwy8jBitg883a-27" vertex="1">
          <mxGeometry y="180" width="140" height="30" as="geometry" />
        </mxCell>
        <mxCell id="tZjroSSiwy8jBitg883a-34" value="用户ID" style="text;strokeColor=none;fillColor=none;align=left;verticalAlign=middle;spacingLeft=4;spacingRight=4;overflow=hidden;points=[[0,0.5],[1,0.5]];portConstraint=eastwest;rotatable=0;whiteSpace=wrap;html=1;" parent="tZjroSSiwy8jBitg883a-27" vertex="1">
          <mxGeometry y="210" width="140" height="30" as="geometry" />
        </mxCell>
        <mxCell id="tZjroSSiwy8jBitg883a-35" value="匹配状态" style="text;strokeColor=none;fillColor=none;align=left;verticalAlign=middle;spacingLeft=4;spacingRight=4;overflow=hidden;points=[[0,0.5],[1,0.5]];portConstraint=eastwest;rotatable=0;whiteSpace=wrap;html=1;" parent="tZjroSSiwy8jBitg883a-27" vertex="1">
          <mxGeometry y="240" width="140" height="30" as="geometry" />
        </mxCell>
        <mxCell id="tZjroSSiwy8jBitg883a-53" value="&lt;span style=&quot;text-align: left; background-color: rgb(255, 153, 153);&quot;&gt;审核状态（新增属性）&lt;/span&gt;" style="text;html=1;align=center;verticalAlign=middle;whiteSpace=wrap;rounded=0;" parent="tZjroSSiwy8jBitg883a-27" vertex="1">
          <mxGeometry y="270" width="140" height="30" as="geometry" />
        </mxCell>
        <mxCell id="tZjroSSiwy8jBitg883a-36" value="新增【审核状态表】" style="text;html=1;align=center;verticalAlign=middle;whiteSpace=wrap;rounded=0;" parent="1" vertex="1">
          <mxGeometry x="235" y="20" width="130" height="30" as="geometry" />
        </mxCell>
        <mxCell id="tZjroSSiwy8jBitg883a-37" value="审核状态表ReviewStatus" style="swimlane;fontStyle=0;childLayout=stackLayout;horizontal=1;startSize=30;horizontalStack=0;resizeParent=1;resizeParentMax=0;resizeLast=0;collapsible=1;marginBottom=0;whiteSpace=wrap;html=1;" parent="1" vertex="1">
          <mxGeometry x="230" y="65" width="140" height="90" as="geometry" />
        </mxCell>
        <mxCell id="tZjroSSiwy8jBitg883a-41" value="状态ID" style="text;html=1;align=center;verticalAlign=middle;whiteSpace=wrap;rounded=0;" parent="tZjroSSiwy8jBitg883a-37" vertex="1">
          <mxGeometry y="30" width="140" height="30" as="geometry" />
        </mxCell>
        <mxCell id="tZjroSSiwy8jBitg883a-42" value="状态值" style="text;html=1;align=center;verticalAlign=middle;whiteSpace=wrap;rounded=0;" parent="tZjroSSiwy8jBitg883a-37" vertex="1">
          <mxGeometry y="60" width="140" height="30" as="geometry" />
        </mxCell>
        <mxCell id="tZjroSSiwy8jBitg883a-43" value="" style="endArrow=classic;html=1;rounded=0;exitX=1;exitY=0.25;exitDx=0;exitDy=0;entryX=0;entryY=0;entryDx=0;entryDy=0;" parent="1" source="tZjroSSiwy8jBitg883a-42" target="tZjroSSiwy8jBitg883a-47" edge="1">
          <mxGeometry width="50" height="50" relative="1" as="geometry">
            <mxPoint x="385" y="97.5" as="sourcePoint" />
            <mxPoint x="450" y="92.5" as="targetPoint" />
          </mxGeometry>
        </mxCell>
        <mxCell id="tZjroSSiwy8jBitg883a-49" value="ID对应的状态值" style="swimlane;whiteSpace=wrap;html=1;" parent="1" vertex="1">
          <mxGeometry x="450" y="35" width="140" height="120" as="geometry" />
        </mxCell>
        <mxCell id="tZjroSSiwy8jBitg883a-48" value="99 Rejected" style="text;html=1;align=center;verticalAlign=middle;whiteSpace=wrap;rounded=0;" parent="tZjroSSiwy8jBitg883a-49" vertex="1">
          <mxGeometry y="90" width="140" height="30" as="geometry" />
        </mxCell>
        <mxCell id="tZjroSSiwy8jBitg883a-47" value="01&amp;nbsp; Approved" style="text;html=1;align=center;verticalAlign=middle;whiteSpace=wrap;rounded=0;" parent="tZjroSSiwy8jBitg883a-49" vertex="1">
          <mxGeometry y="60" width="140" height="30" as="geometry" />
        </mxCell>
        <mxCell id="tZjroSSiwy8jBitg883a-46" value="00&amp;nbsp; Pending" style="text;html=1;align=center;verticalAlign=middle;whiteSpace=wrap;rounded=0;" parent="tZjroSSiwy8jBitg883a-49" vertex="1">
          <mxGeometry y="30" width="140" height="30" as="geometry" />
        </mxCell>
        <mxCell id="tZjroSSiwy8jBitg883a-55" value="" style="endArrow=classic;html=1;rounded=0;exitX=1;exitY=0.5;exitDx=0;exitDy=0;entryX=0;entryY=0.5;entryDx=0;entryDy=0;" parent="1" source="tZjroSSiwy8jBitg883a-54" target="tZjroSSiwy8jBitg883a-41" edge="1">
          <mxGeometry width="50" height="50" relative="1" as="geometry">
            <mxPoint x="210" y="350" as="sourcePoint" />
            <mxPoint x="260" y="300" as="targetPoint" />
          </mxGeometry>
        </mxCell>
        <mxCell id="tZjroSSiwy8jBitg883a-63" value="外码" style="edgeLabel;html=1;align=center;verticalAlign=middle;resizable=0;points=[];" parent="tZjroSSiwy8jBitg883a-55" vertex="1" connectable="0">
          <mxGeometry x="0.0446" y="2" relative="1" as="geometry">
            <mxPoint as="offset" />
          </mxGeometry>
        </mxCell>
        <mxCell id="tZjroSSiwy8jBitg883a-58" value="" style="endArrow=classic;html=1;rounded=0;exitX=0;exitY=0.5;exitDx=0;exitDy=0;entryX=1;entryY=0.5;entryDx=0;entryDy=0;" parent="1" source="tZjroSSiwy8jBitg883a-53" target="tZjroSSiwy8jBitg883a-41" edge="1">
          <mxGeometry width="50" height="50" relative="1" as="geometry">
            <mxPoint x="320" y="420" as="sourcePoint" />
            <mxPoint x="280" y="260" as="targetPoint" />
          </mxGeometry>
        </mxCell>
        <mxCell id="tZjroSSiwy8jBitg883a-61" value="外码" style="edgeLabel;html=1;align=center;verticalAlign=middle;resizable=0;points=[];" parent="tZjroSSiwy8jBitg883a-58" vertex="1" connectable="0">
          <mxGeometry x="0.2107" y="4" relative="1" as="geometry">
            <mxPoint x="-1" as="offset" />
          </mxGeometry>
        </mxCell>
        <mxCell id="tZjroSSiwy8jBitg883a-66" style="edgeStyle=orthogonalEdgeStyle;rounded=0;orthogonalLoop=1;jettySize=auto;html=1;exitX=1;exitY=0.5;exitDx=0;exitDy=0;entryX=0;entryY=0.5;entryDx=0;entryDy=0;" parent="1" source="tZjroSSiwy8jBitg883a-64" target="tZjroSSiwy8jBitg883a-65" edge="1">
          <mxGeometry relative="1" as="geometry" />
        </mxCell>
        <mxCell id="tZjroSSiwy8jBitg883a-64" value="用户发布寻物启事或找到的无主物品信息（先注册或登录）" style="rounded=0;whiteSpace=wrap;html=1;" parent="1" vertex="1">
          <mxGeometry x="30" y="590" width="120" height="60" as="geometry" />
        </mxCell>
        <mxCell id="tZjroSSiwy8jBitg883a-68" style="edgeStyle=orthogonalEdgeStyle;rounded=0;orthogonalLoop=1;jettySize=auto;html=1;exitX=1;exitY=0.5;exitDx=0;exitDy=0;entryX=0;entryY=0.5;entryDx=0;entryDy=0;" parent="1" source="tZjroSSiwy8jBitg883a-65" target="tZjroSSiwy8jBitg883a-67" edge="1">
          <mxGeometry relative="1" as="geometry" />
        </mxCell>
        <mxCell id="tZjroSSiwy8jBitg883a-65" value="用户填写所需信息，&lt;div&gt;将新元组加入找回物品表&lt;br&gt;将新元组加入物品状态历史表&lt;br&gt;&lt;/div&gt;&lt;div&gt;状态为Pending&lt;/div&gt;" style="rounded=0;whiteSpace=wrap;html=1;" parent="1" vertex="1">
          <mxGeometry x="232.5" y="580" width="187.5" height="80" as="geometry" />
        </mxCell>
        <mxCell id="tZjroSSiwy8jBitg883a-70" style="edgeStyle=orthogonalEdgeStyle;rounded=0;orthogonalLoop=1;jettySize=auto;html=1;exitX=1;exitY=0.5;exitDx=0;exitDy=0;entryX=0;entryY=0.5;entryDx=0;entryDy=0;" parent="1" source="tZjroSSiwy8jBitg883a-67" target="tZjroSSiwy8jBitg883a-69" edge="1">
          <mxGeometry relative="1" as="geometry" />
        </mxCell>
        <mxCell id="tZjroSSiwy8jBitg883a-67" value="用户添加图片&lt;div&gt;将一些新元组加入物品图片表&lt;br&gt;&lt;/div&gt;&lt;div&gt;状态为Pending&lt;br&gt;&lt;/div&gt;" style="rounded=0;whiteSpace=wrap;html=1;" parent="1" vertex="1">
          <mxGeometry x="480" y="580" width="170" height="80" as="geometry" />
        </mxCell>
        <mxCell id="tZjroSSiwy8jBitg883a-89" style="edgeStyle=orthogonalEdgeStyle;rounded=0;orthogonalLoop=1;jettySize=auto;html=1;exitX=1;exitY=0.5;exitDx=0;exitDy=0;" parent="1" source="tZjroSSiwy8jBitg883a-69" target="tZjroSSiwy8jBitg883a-88" edge="1">
          <mxGeometry relative="1" as="geometry" />
        </mxCell>
        <mxCell id="tZjroSSiwy8jBitg883a-69" value="用户选择标签&lt;div&gt;将一些新元组加入物品标签关联表&lt;br&gt;&lt;/div&gt;&lt;div&gt;状态为Pending&lt;br&gt;&lt;/div&gt;" style="rounded=0;whiteSpace=wrap;html=1;" parent="1" vertex="1">
          <mxGeometry x="720" y="580" width="200" height="80" as="geometry" />
        </mxCell>
        <mxCell id="tZjroSSiwy8jBitg883a-71" value="物品-标签关联表 ItemTagLinks" style="swimlane;fontStyle=0;childLayout=stackLayout;horizontal=1;startSize=40;horizontalStack=0;resizeParent=1;resizeParentMax=0;resizeLast=0;collapsible=1;marginBottom=0;whiteSpace=wrap;html=1;" parent="1" vertex="1">
          <mxGeometry x="30" y="90" width="140" height="130" as="geometry" />
        </mxCell>
        <mxCell id="tZjroSSiwy8jBitg883a-72" value="物品ID" style="text;strokeColor=none;fillColor=none;align=left;verticalAlign=middle;spacingLeft=4;spacingRight=4;overflow=hidden;points=[[0,0.5],[1,0.5]];portConstraint=eastwest;rotatable=0;whiteSpace=wrap;html=1;" parent="tZjroSSiwy8jBitg883a-71" vertex="1">
          <mxGeometry y="40" width="140" height="30" as="geometry" />
        </mxCell>
        <mxCell id="tZjroSSiwy8jBitg883a-74" value="标签ID" style="text;strokeColor=none;fillColor=none;align=left;verticalAlign=middle;spacingLeft=4;spacingRight=4;overflow=hidden;points=[[0,0.5],[1,0.5]];portConstraint=eastwest;rotatable=0;whiteSpace=wrap;html=1;" parent="tZjroSSiwy8jBitg883a-71" vertex="1">
          <mxGeometry y="70" width="140" height="30" as="geometry" />
        </mxCell>
        <mxCell id="tZjroSSiwy8jBitg883a-80" value="&lt;span style=&quot;text-align: left; background-color: rgb(255, 153, 153);&quot;&gt;审核状态（新增属性）&lt;/span&gt;" style="text;html=1;align=center;verticalAlign=middle;whiteSpace=wrap;rounded=0;" parent="tZjroSSiwy8jBitg883a-71" vertex="1">
          <mxGeometry y="100" width="140" height="30" as="geometry" />
        </mxCell>
        <mxCell id="tZjroSSiwy8jBitg883a-82" value="" style="endArrow=classic;html=1;rounded=0;exitX=1;exitY=0.5;exitDx=0;exitDy=0;entryX=0;entryY=0.75;entryDx=0;entryDy=0;" parent="1" source="tZjroSSiwy8jBitg883a-80" target="tZjroSSiwy8jBitg883a-41" edge="1">
          <mxGeometry width="50" height="50" relative="1" as="geometry">
            <mxPoint x="180" y="210" as="sourcePoint" />
            <mxPoint x="220" y="160" as="targetPoint" />
          </mxGeometry>
        </mxCell>
        <mxCell id="tZjroSSiwy8jBitg883a-83" value="外码" style="edgeLabel;html=1;align=center;verticalAlign=middle;resizable=0;points=[];" parent="tZjroSSiwy8jBitg883a-82" vertex="1" connectable="0">
          <mxGeometry x="-0.4239" y="-2" relative="1" as="geometry">
            <mxPoint as="offset" />
          </mxGeometry>
        </mxCell>
        <mxCell id="tZjroSSiwy8jBitg883a-91" style="edgeStyle=orthogonalEdgeStyle;rounded=0;orthogonalLoop=1;jettySize=auto;html=1;exitX=1;exitY=0.5;exitDx=0;exitDy=0;entryX=0;entryY=0.5;entryDx=0;entryDy=0;" parent="1" source="tZjroSSiwy8jBitg883a-88" target="tZjroSSiwy8jBitg883a-90" edge="1">
          <mxGeometry relative="1" as="geometry" />
        </mxCell>
        <mxCell id="tZjroSSiwy8jBitg883a-92" value="通过" style="edgeLabel;html=1;align=center;verticalAlign=middle;resizable=0;points=[];" parent="tZjroSSiwy8jBitg883a-91" vertex="1" connectable="0">
          <mxGeometry x="-0.098" y="5" relative="1" as="geometry">
            <mxPoint as="offset" />
          </mxGeometry>
        </mxCell>
        <mxCell id="tZjroSSiwy8jBitg883a-94" value="" style="edgeStyle=orthogonalEdgeStyle;rounded=0;orthogonalLoop=1;jettySize=auto;html=1;" parent="1" source="tZjroSSiwy8jBitg883a-88" target="tZjroSSiwy8jBitg883a-93" edge="1">
          <mxGeometry relative="1" as="geometry" />
        </mxCell>
        <mxCell id="tZjroSSiwy8jBitg883a-95" value="不通过" style="edgeLabel;html=1;align=center;verticalAlign=middle;resizable=0;points=[];" parent="tZjroSSiwy8jBitg883a-94" vertex="1" connectable="0">
          <mxGeometry x="0.049" y="7" relative="1" as="geometry">
            <mxPoint as="offset" />
          </mxGeometry>
        </mxCell>
        <mxCell id="tZjroSSiwy8jBitg883a-88" value="管理员审核" style="rounded=0;whiteSpace=wrap;html=1;" parent="1" vertex="1">
          <mxGeometry x="990" y="590" width="120" height="60" as="geometry" />
        </mxCell>
        <mxCell id="tZjroSSiwy8jBitg883a-98" style="edgeStyle=orthogonalEdgeStyle;rounded=0;orthogonalLoop=1;jettySize=auto;html=1;exitX=0.5;exitY=1;exitDx=0;exitDy=0;entryX=0.5;entryY=0;entryDx=0;entryDy=0;" parent="1" source="tZjroSSiwy8jBitg883a-90" target="tZjroSSiwy8jBitg883a-97" edge="1">
          <mxGeometry relative="1" as="geometry" />
        </mxCell>
        <mxCell id="tZjroSSiwy8jBitg883a-90" value="审核状态改为&lt;div&gt;Approved&lt;/div&gt;" style="rounded=0;whiteSpace=wrap;html=1;" parent="1" vertex="1">
          <mxGeometry x="1180" y="590" width="120" height="60" as="geometry" />
        </mxCell>
        <mxCell id="tZjroSSiwy8jBitg883a-96" style="edgeStyle=orthogonalEdgeStyle;rounded=0;orthogonalLoop=1;jettySize=auto;html=1;exitX=0;exitY=0.5;exitDx=0;exitDy=0;entryX=0.5;entryY=1;entryDx=0;entryDy=0;" parent="1" source="tZjroSSiwy8jBitg883a-93" target="tZjroSSiwy8jBitg883a-64" edge="1">
          <mxGeometry relative="1" as="geometry" />
        </mxCell>
        <mxCell id="tZjroSSiwy8jBitg883a-93" value="审核状态改为&lt;div&gt;Rejected&lt;/div&gt;" style="rounded=0;whiteSpace=wrap;html=1;" parent="1" vertex="1">
          <mxGeometry x="990" y="720" width="120" height="60" as="geometry" />
        </mxCell>
        <mxCell id="tZjroSSiwy8jBitg883a-97" value="可被用户查询" style="rounded=0;whiteSpace=wrap;html=1;" parent="1" vertex="1">
          <mxGeometry x="1180" y="720" width="120" height="60" as="geometry" />
        </mxCell>
        <mxCell id="tZjroSSiwy8jBitg883a-99" value="&lt;h1 style=&quot;margin-top: 0px;&quot;&gt;统一说明&lt;/h1&gt;&lt;p&gt;&lt;font style=&quot;font-size: 14px;&quot;&gt;增加了审核状态后，所有用户侧能够在总表内查询到的遗失/找回物品状态均为Approved.&lt;/font&gt;&lt;/p&gt;&lt;p&gt;&lt;span style=&quot;font-size: 14px;&quot;&gt;用户在个人中心中查询到的物品可以为三种状态的所有物品。&lt;/span&gt;&lt;/p&gt;&lt;p&gt;&lt;span style=&quot;font-size: 14px;&quot;&gt;由于考虑到安全性能而把物品总表和用户个人物品表分成两张表的话，表间的操作会及其麻烦。&lt;/span&gt;&lt;/p&gt;&lt;p&gt;&lt;span style=&quot;font-size: 14px;&quot;&gt;因此在此处用户输入的安全性用预编译指令进行防控。用户可以直接访问主表。&lt;/span&gt;&lt;/p&gt;" style="text;html=1;whiteSpace=wrap;overflow=hidden;rounded=0;" parent="1" vertex="1">
          <mxGeometry x="670" y="32.5" width="350" height="245" as="geometry" />
        </mxCell>
        <mxCell id="tZjroSSiwy8jBitg883a-100" value="&lt;h1 style=&quot;margin-top: 0px;&quot;&gt;To Be Discussed&lt;/h1&gt;&lt;p&gt;&lt;span style=&quot;font-size: 14px;&quot;&gt;考虑到物品表、物品图片表、物品标签表三者理论上都需要审核的问题，是不是应该设计一张审核总表，natural join上述三张表，然后在分表中设置触发器，当管理员在审核表中修改审核状态后，各分表的审核状态自动更新。但是又考虑到遗失物品和找回物品时两张表，这样就要结合出两个审核总表，是不是考虑把所有的物品归类为一张总表，以ID区分找回和遗失的物品，例如找回物品ID为“FD12345”，遗失物品ID为“LS12345”&lt;/span&gt;&lt;/p&gt;" style="text;html=1;whiteSpace=wrap;overflow=hidden;rounded=0;" parent="1" vertex="1">
          <mxGeometry x="670" y="277.5" width="350" height="245" as="geometry" />
        </mxCell>
        <mxCell id="NVZ_XTS5-zqnk6aFLP1g-3" value="" style="edgeStyle=orthogonalEdgeStyle;rounded=0;orthogonalLoop=1;jettySize=auto;html=1;" edge="1" parent="1" source="NVZ_XTS5-zqnk6aFLP1g-1" target="NVZ_XTS5-zqnk6aFLP1g-2">
          <mxGeometry relative="1" as="geometry" />
        </mxCell>
        <mxCell id="NVZ_XTS5-zqnk6aFLP1g-1" value="审核管理员点击&lt;div&gt;“审核中心”按钮&lt;/div&gt;" style="rounded=0;whiteSpace=wrap;html=1;" vertex="1" parent="1">
          <mxGeometry x="40" y="1075" width="120" height="60" as="geometry" />
        </mxCell>
        <mxCell id="NVZ_XTS5-zqnk6aFLP1g-7" value="" style="edgeStyle=orthogonalEdgeStyle;rounded=0;orthogonalLoop=1;jettySize=auto;html=1;" edge="1" parent="1" source="NVZ_XTS5-zqnk6aFLP1g-2" target="NVZ_XTS5-zqnk6aFLP1g-6">
          <mxGeometry relative="1" as="geometry" />
        </mxCell>
        <mxCell id="NVZ_XTS5-zqnk6aFLP1g-2" value="进入审核页面&lt;div&gt;展示所有待审核物品&lt;/div&gt;" style="rounded=0;whiteSpace=wrap;html=1;" vertex="1" parent="1">
          <mxGeometry x="240" y="1075" width="120" height="60" as="geometry" />
        </mxCell>
        <mxCell id="NVZ_XTS5-zqnk6aFLP1g-9" value="" style="edgeStyle=orthogonalEdgeStyle;rounded=0;orthogonalLoop=1;jettySize=auto;html=1;" edge="1" parent="1" source="NVZ_XTS5-zqnk6aFLP1g-6" target="NVZ_XTS5-zqnk6aFLP1g-8">
          <mxGeometry relative="1" as="geometry" />
        </mxCell>
        <mxCell id="NVZ_XTS5-zqnk6aFLP1g-10" value="通过" style="edgeLabel;html=1;align=center;verticalAlign=middle;resizable=0;points=[];" vertex="1" connectable="0" parent="NVZ_XTS5-zqnk6aFLP1g-9">
          <mxGeometry x="0.1556" y="-2" relative="1" as="geometry">
            <mxPoint y="1" as="offset" />
          </mxGeometry>
        </mxCell>
        <mxCell id="NVZ_XTS5-zqnk6aFLP1g-15" value="" style="edgeStyle=orthogonalEdgeStyle;rounded=0;orthogonalLoop=1;jettySize=auto;html=1;" edge="1" parent="1" source="NVZ_XTS5-zqnk6aFLP1g-6" target="NVZ_XTS5-zqnk6aFLP1g-14">
          <mxGeometry relative="1" as="geometry" />
        </mxCell>
        <mxCell id="NVZ_XTS5-zqnk6aFLP1g-16" value="拒绝" style="edgeLabel;html=1;align=center;verticalAlign=middle;resizable=0;points=[];" vertex="1" connectable="0" parent="NVZ_XTS5-zqnk6aFLP1g-15">
          <mxGeometry x="0.0807" y="1" relative="1" as="geometry">
            <mxPoint x="-11" y="1" as="offset" />
          </mxGeometry>
        </mxCell>
        <mxCell id="NVZ_XTS5-zqnk6aFLP1g-24" value="" style="edgeStyle=orthogonalEdgeStyle;rounded=0;orthogonalLoop=1;jettySize=auto;html=1;" edge="1" parent="1" source="NVZ_XTS5-zqnk6aFLP1g-6" target="NVZ_XTS5-zqnk6aFLP1g-23">
          <mxGeometry relative="1" as="geometry" />
        </mxCell>
        <mxCell id="NVZ_XTS5-zqnk6aFLP1g-25" value="详情" style="edgeLabel;html=1;align=center;verticalAlign=middle;resizable=0;points=[];" vertex="1" connectable="0" parent="NVZ_XTS5-zqnk6aFLP1g-24">
          <mxGeometry x="-0.2571" y="-2" relative="1" as="geometry">
            <mxPoint as="offset" />
          </mxGeometry>
        </mxCell>
        <mxCell id="NVZ_XTS5-zqnk6aFLP1g-6" value="点击不同按钮" style="rhombus;whiteSpace=wrap;html=1;rounded=0;" vertex="1" parent="1">
          <mxGeometry x="460" y="1050" width="150" height="110" as="geometry" />
        </mxCell>
        <mxCell id="NVZ_XTS5-zqnk6aFLP1g-12" value="" style="edgeStyle=orthogonalEdgeStyle;rounded=0;orthogonalLoop=1;jettySize=auto;html=1;" edge="1" parent="1" source="NVZ_XTS5-zqnk6aFLP1g-8" target="NVZ_XTS5-zqnk6aFLP1g-11">
          <mxGeometry relative="1" as="geometry" />
        </mxCell>
        <mxCell id="NVZ_XTS5-zqnk6aFLP1g-13" value="Trigger" style="edgeLabel;html=1;align=center;verticalAlign=middle;resizable=0;points=[];" vertex="1" connectable="0" parent="NVZ_XTS5-zqnk6aFLP1g-12">
          <mxGeometry x="-0.275" y="-3" relative="1" as="geometry">
            <mxPoint x="6" y="-3" as="offset" />
          </mxGeometry>
        </mxCell>
        <mxCell id="NVZ_XTS5-zqnk6aFLP1g-8" value="&lt;span style=&quot;color: rgb(51, 51, 51); font-family: &amp;quot;Open Sans&amp;quot;, &amp;quot;Clear Sans&amp;quot;, &amp;quot;Helvetica Neue&amp;quot;, Helvetica, Arial, &amp;quot;Segoe UI Emoji&amp;quot;, sans-serif; orphans: 4; text-align: left; white-space-collapse: preserve; background-color: rgb(255, 255, 255);&quot;&gt;&lt;font style=&quot;font-size: 12px;&quot;&gt;物品审核状态关联表&lt;/font&gt;&lt;/span&gt;&lt;div&gt;&lt;span style=&quot;color: rgb(51, 51, 51); font-family: &amp;quot;Open Sans&amp;quot;, &amp;quot;Clear Sans&amp;quot;, &amp;quot;Helvetica Neue&amp;quot;, Helvetica, Arial, &amp;quot;Segoe UI Emoji&amp;quot;, sans-serif; orphans: 4; text-align: left; white-space-collapse: preserve; background-color: rgb(255, 255, 255);&quot;&gt;&lt;font style=&quot;font-size: 12px;&quot;&gt;审核状态&lt;/font&gt;&lt;/span&gt;&lt;/div&gt;&lt;div&gt;&lt;span style=&quot;color: rgb(51, 51, 51); font-family: &amp;quot;Open Sans&amp;quot;, &amp;quot;Clear Sans&amp;quot;, &amp;quot;Helvetica Neue&amp;quot;, Helvetica, Arial, &amp;quot;Segoe UI Emoji&amp;quot;, sans-serif; orphans: 4; text-align: left; white-space-collapse: preserve; background-color: rgb(255, 255, 255);&quot;&gt;&lt;font style=&quot;font-size: 12px;&quot;&gt;改为“Approved”&lt;/font&gt;&lt;/span&gt;&lt;/div&gt;" style="whiteSpace=wrap;html=1;rounded=0;" vertex="1" parent="1">
          <mxGeometry x="475" y="885" width="120" height="60" as="geometry" />
        </mxCell>
        <mxCell id="NVZ_XTS5-zqnk6aFLP1g-30" style="edgeStyle=orthogonalEdgeStyle;rounded=0;orthogonalLoop=1;jettySize=auto;html=1;exitX=1;exitY=0.5;exitDx=0;exitDy=0;entryX=0;entryY=0.5;entryDx=0;entryDy=0;" edge="1" parent="1" source="NVZ_XTS5-zqnk6aFLP1g-11" target="NVZ_XTS5-zqnk6aFLP1g-29">
          <mxGeometry relative="1" as="geometry" />
        </mxCell>
        <mxCell id="NVZ_XTS5-zqnk6aFLP1g-11" value="物品表、图片表、&lt;div&gt;物品标签关联表&lt;/div&gt;&lt;div&gt;均改为“Approved”&lt;/div&gt;" style="whiteSpace=wrap;html=1;rounded=0;" vertex="1" parent="1">
          <mxGeometry x="675" y="885" width="120" height="60" as="geometry" />
        </mxCell>
        <mxCell id="NVZ_XTS5-zqnk6aFLP1g-22" style="edgeStyle=orthogonalEdgeStyle;rounded=0;orthogonalLoop=1;jettySize=auto;html=1;exitX=1;exitY=0.5;exitDx=0;exitDy=0;entryX=0;entryY=0.5;entryDx=0;entryDy=0;" edge="1" parent="1" source="NVZ_XTS5-zqnk6aFLP1g-14" target="NVZ_XTS5-zqnk6aFLP1g-20">
          <mxGeometry relative="1" as="geometry" />
        </mxCell>
        <mxCell id="NVZ_XTS5-zqnk6aFLP1g-14" value="弹出输入框&lt;div&gt;填写拒绝理由&lt;/div&gt;" style="whiteSpace=wrap;html=1;rounded=0;" vertex="1" parent="1">
          <mxGeometry x="705" y="1075" width="120" height="60" as="geometry" />
        </mxCell>
        <mxCell id="NVZ_XTS5-zqnk6aFLP1g-18" value="" style="edgeStyle=orthogonalEdgeStyle;rounded=0;orthogonalLoop=1;jettySize=auto;html=1;" edge="1" parent="1" source="NVZ_XTS5-zqnk6aFLP1g-20" target="NVZ_XTS5-zqnk6aFLP1g-21">
          <mxGeometry relative="1" as="geometry" />
        </mxCell>
        <mxCell id="NVZ_XTS5-zqnk6aFLP1g-19" value="Trigger" style="edgeLabel;html=1;align=center;verticalAlign=middle;resizable=0;points=[];" vertex="1" connectable="0" parent="NVZ_XTS5-zqnk6aFLP1g-18">
          <mxGeometry x="-0.275" y="-3" relative="1" as="geometry">
            <mxPoint x="6" y="-3" as="offset" />
          </mxGeometry>
        </mxCell>
        <mxCell id="NVZ_XTS5-zqnk6aFLP1g-20" value="&lt;span style=&quot;color: rgb(51, 51, 51); font-family: &amp;quot;Open Sans&amp;quot;, &amp;quot;Clear Sans&amp;quot;, &amp;quot;Helvetica Neue&amp;quot;, Helvetica, Arial, &amp;quot;Segoe UI Emoji&amp;quot;, sans-serif; orphans: 4; text-align: left; white-space-collapse: preserve; background-color: rgb(255, 255, 255);&quot;&gt;&lt;font style=&quot;font-size: 12px;&quot;&gt;物品审核状态关联表&lt;/font&gt;&lt;/span&gt;&lt;div&gt;&lt;span style=&quot;color: rgb(51, 51, 51); font-family: &amp;quot;Open Sans&amp;quot;, &amp;quot;Clear Sans&amp;quot;, &amp;quot;Helvetica Neue&amp;quot;, Helvetica, Arial, &amp;quot;Segoe UI Emoji&amp;quot;, sans-serif; orphans: 4; text-align: left; white-space-collapse: preserve; background-color: rgb(255, 255, 255);&quot;&gt;&lt;font style=&quot;font-size: 12px;&quot;&gt;审核状态&lt;/font&gt;&lt;/span&gt;&lt;/div&gt;&lt;div&gt;&lt;span style=&quot;color: rgb(51, 51, 51); font-family: &amp;quot;Open Sans&amp;quot;, &amp;quot;Clear Sans&amp;quot;, &amp;quot;Helvetica Neue&amp;quot;, Helvetica, Arial, &amp;quot;Segoe UI Emoji&amp;quot;, sans-serif; orphans: 4; text-align: left; white-space-collapse: preserve; background-color: rgb(255, 255, 255);&quot;&gt;&lt;font style=&quot;font-size: 12px;&quot;&gt;改为“Rejected”&lt;/font&gt;&lt;/span&gt;&lt;/div&gt;" style="whiteSpace=wrap;html=1;rounded=0;" vertex="1" parent="1">
          <mxGeometry x="890" y="1075" width="120" height="60" as="geometry" />
        </mxCell>
        <mxCell id="NVZ_XTS5-zqnk6aFLP1g-32" style="edgeStyle=orthogonalEdgeStyle;rounded=0;orthogonalLoop=1;jettySize=auto;html=1;exitX=1;exitY=0.5;exitDx=0;exitDy=0;entryX=0;entryY=0.5;entryDx=0;entryDy=0;" edge="1" parent="1" source="NVZ_XTS5-zqnk6aFLP1g-21" target="NVZ_XTS5-zqnk6aFLP1g-31">
          <mxGeometry relative="1" as="geometry" />
        </mxCell>
        <mxCell id="NVZ_XTS5-zqnk6aFLP1g-21" value="物品表、图片表、&lt;div&gt;物品标签关联表&lt;/div&gt;&lt;div&gt;均改为“Rejected”&lt;/div&gt;" style="whiteSpace=wrap;html=1;rounded=0;" vertex="1" parent="1">
          <mxGeometry x="1090" y="1075" width="120" height="60" as="geometry" />
        </mxCell>
        <mxCell id="NVZ_XTS5-zqnk6aFLP1g-27" style="edgeStyle=orthogonalEdgeStyle;rounded=0;orthogonalLoop=1;jettySize=auto;html=1;exitX=0;exitY=0.5;exitDx=0;exitDy=0;entryX=0;entryY=0.5;entryDx=0;entryDy=0;" edge="1" parent="1" source="NVZ_XTS5-zqnk6aFLP1g-23" target="NVZ_XTS5-zqnk6aFLP1g-6">
          <mxGeometry relative="1" as="geometry">
            <Array as="points">
              <mxPoint x="410" y="1270" />
              <mxPoint x="410" y="1105" />
            </Array>
          </mxGeometry>
        </mxCell>
        <mxCell id="NVZ_XTS5-zqnk6aFLP1g-28" value="详情网页中没有“详情”按钮，&lt;div&gt;取而代之的是“上一个”“”下一个&lt;/div&gt;&lt;div&gt;“通过”“拒绝”按钮依然存在&lt;/div&gt;" style="edgeLabel;html=1;align=center;verticalAlign=middle;resizable=0;points=[];" vertex="1" connectable="0" parent="NVZ_XTS5-zqnk6aFLP1g-27">
          <mxGeometry x="-0.05" y="1" relative="1" as="geometry">
            <mxPoint y="-12" as="offset" />
          </mxGeometry>
        </mxCell>
        <mxCell id="NVZ_XTS5-zqnk6aFLP1g-23" value="进入详情网页" style="whiteSpace=wrap;html=1;rounded=0;" vertex="1" parent="1">
          <mxGeometry x="475" y="1240" width="120" height="60" as="geometry" />
        </mxCell>
        <mxCell id="NVZ_XTS5-zqnk6aFLP1g-29" value="可被用户查询" style="rounded=0;whiteSpace=wrap;html=1;" vertex="1" parent="1">
          <mxGeometry x="880" y="885" width="120" height="60" as="geometry" />
        </mxCell>
        <mxCell id="NVZ_XTS5-zqnk6aFLP1g-31" value="&lt;div&gt;返回发布用户侧修改&lt;/div&gt;不可被所有用户查询" style="rounded=0;whiteSpace=wrap;html=1;" vertex="1" parent="1">
          <mxGeometry x="1270" y="1075" width="120" height="60" as="geometry" />
        </mxCell>
      </root>
    </mxGraphModel>
  </diagram>
</mxfile>
